<?xml version="1.0" encoding="UTF-8" standalone="no"?>
<!-- Created with Inkscape (http://www.inkscape.org/) -->

<svg
   version="1.1"
   id="svg1"
   width="141.8644"
   height="30"
   viewBox="0 0 141.86439 30"
   xmlns="http://www.w3.org/2000/svg"
   xmlns:svg="http://www.w3.org/2000/svg">
  <defs
     id="defs1">
    <clipPath
       clipPathUnits="userSpaceOnUse"
       id="clipPath1">
      <path
         d="M 0,0 H 558 V 118 H 0 Z"
         id="path1" />
    </clipPath>
  </defs>
  <g
     id="g1"
     transform="translate(-100,-54.51235)">
    <g
       id="g2"
       transform="matrix(0.19067797,0,0,0.19067797,100,54.51235)">
      <path
         d="M 8.457,102.887 58.793,13.879 109.031,102.918 95.934,102.906 62.496,45.094 V 84.305 H 55.035 L 54.988,45.039 21.555,102.918 Z M 0,117.789 C 0.473,117.898 0.484,118 1.055,118 H 117.254 V 0 H 0 Z M 421.617,54.117 c -5.113,-5.824 -11.754,-9.703 -23.515,-8.918 -17.051,1.141 -27.938,18.797 -26.762,35.356 1.258,17.773 10.703,32.777 30.457,32.777 8.859,0 13.508,-3.016 19.82,-8.488 v 8.488 h 14.34 c 0.488,0 0.633,-0.148 0.633,-0.637 V 4.668 H 421.617 Z M 181.574,39.688 h 0.418 l 14.551,34.167 H 166.176 Z M 518.52,74.516 c 5.414,7.027 24.925,10.472 24.015,19.191 -1.012,9.668 -12.765,7.981 -17.433,-2.234 l -12.864,5.726 c 3.094,11.332 15.453,16.742 24.477,15.977 10.922,-0.93 21.285,-8.641 21.285,-20.219 0,-18.582 -13.598,-17.059 -25.34,-25.223 -4.629,-3.222 -3.359,-8.261 1.086,-8.945 4.988,0 5.41,2.129 7.805,5.731 l 12.23,-6.368 c -1.48,-7.945 -11.789,-13.746 -18.765,-13.16 -6.727,0 -13.305,3.723 -16.809,9.344 -3.434,5.512 -3.711,14.961 0.313,20.18 M 473.223,58.789 c 4.379,0 8.234,0.055 11.871,3.547 0.898,0.867 1.906,2.242 2.539,3.387 0.515,0.929 1.594,3.289 1.617,4.523 h -29.102 c 0.028,-1.184 1.2,-3.594 1.727,-4.414 0.852,-1.332 1.617,-2.324 2.754,-3.387 1.746,-1.633 5.316,-3.656 8.594,-3.656 m -30.27,20.234 c 0,20.516 14.742,34.688 32.274,34.743 12.703,0.546 26.007,-7.911 29.726,-19.676 -0.836,-0.223 -11.523,-6.574 -12.441,-6.789 -3.801,6.34 -7.18,12.969 -18.055,12.426 -8.953,-0.446 -15.687,-8.309 -15.687,-17.094 h 45.132 c 0.473,0 0.645,-0.352 0.696,-0.996 1.445,-19.707 -9.825,-36.989 -30.516,-36.813 -20.328,0.172 -31.129,15.246 -31.129,34.199 m -56.191,1.625 c 0,-3.703 0.008,-7.043 1.48,-10.398 1.805,-4.125 4.051,-7.133 7.883,-9.465 3.543,-2.16 6.352,-1.996 10.25,-1.996 4.832,0 10.152,3.793 12.223,7.012 3.652,5.676 3.804,8.82 3.804,15.484 0,3.879 -1.855,8.836 -4.093,11.797 -0.407,0.539 -0.614,0.691 -1.055,1.27 -2.707,3.535 -8.383,5.398 -13.199,5.398 -6.125,0 -11.285,-3.383 -14.254,-8.363 -1.746,-2.934 -3.039,-7.297 -3.039,-10.739 M 332.355,99.75 c -11.445,0 -17.753,-9.961 -17.707,-20.375 0.04,-9.543 5.473,-19.98 16.02,-20.586 12.348,-0.785 19.238,6.68 19.816,19.313 0.485,10.628 -5.433,21.648 -18.129,21.648 m 17.29,-45.633 c -5.118,-5.824 -11.754,-9.703 -23.516,-8.918 -17.051,1.141 -27.938,18.797 -26.766,35.356 1.262,17.773 10.707,32.777 30.461,32.777 8.86,0 13.508,-3.016 19.821,-8.488 v 8.488 h 14.339 c 0.489,0 0.633,-0.148 0.633,-0.637 V 4.668 h -14.972 z m -97.215,0.215 c 0,-1.969 0.422,-5.73 -0.633,-5.73 h -13.918 c -0.488,0 -0.633,0.144 -0.633,0.636 v 63.457 c 0,0.489 0.145,0.637 0.633,0.637 h 13.918 c 0.996,0 0.633,-1.648 0.633,-3.398 V 80.648 c 0,-11.39 1.672,-20.164 13.918,-20.164 11.336,0.493 11.175,11.407 11.175,21.012 v 28.227 c 0,1.89 -0.371,3.609 0.633,3.609 h 14.34 V 71.52 c 0,-25.032 -27.191,-32.684 -40.066,-17.188 m -120.625,59 h 16.66 L 159.641,88.5 h 43.441 l 10.246,24.301 c 0.129,0.304 0.317,0.531 0.719,0.531 h 15.961 c 0.609,0.012 0.5,-0.109 0.383,-0.414 L 181.781,4.668 Z"
         style="fill:#00529e;fill-opacity:1;fill-rule:evenodd;stroke:none"
         transform="scale(1.3333333)"
         clip-path="url(#clipPath1)"
         id="path2" />
    </g>
  </g>
</svg>
